<svg xmlns="http://www.w3.org/2000/svg" viewBox="0 0 30 30" width="30px" height="30px">
  <path fill="#8bb7f0" d="M15,28.5C7.6,28.5,1.5,22.4,1.5,15S7.6,1.5,15,1.5S28.5,7.6,28.5,15S22.4,28.5,15,28.5z" />
  <path fill="#4e7ab5" d="M15,2c7.2,0,13,5.8,13,13s-5.8,13-13,13S2,22.2,2,15S7.8,2,15,2 M15,1C7.3,1,1,7.3,1,15 s6.3,14,14,14s14-6.3,14-14S22.7,1,15,1L15,1z" />
  <path fill="#fff" d="M15,26.5C8.7,26.5,3.5,21.3,3.5,15S8.7,3.5,15,3.5S26.5,8.7,26.5,15S21.3,26.5,15,26.5z" />
  <path fill="#4e7ab5" d="M15,4c6.1,0,11,4.9,11,11s-4.9,11-11,11S4,21.1,4,15S8.9,4,15,4 M15,3C8.4,3,3,8.4,3,15 s5.4,12,12,12s12-5.4,12-12S21.6,3,15,3L15,3z" />
  <path fill="#66798f" d="M19.3,19.8c-0.1,0-0.3,0-0.4-0.1l-4.6-4.6l5.4-8c0.2-0.2,0.5-0.3,0.7-0.1c0.2,0.2,0.3,0.5,0.1,0.7 l-4.9,7.3l4,4c0.2,0.2,0.2,0.5,0,0.7C19.6,19.8,19.4,19.8,19.3,19.8z" />
  <path fill="#66798f" d="M15 13.5A1.5 1.5 0 1 0 15 16.5A1.5 1.5 0 1 0 15 13.5Z" />
  <path fill="#c5d4de" d="M15 5A1 1 0 1 0 15 7 1 1 0 1 0 15 5zM15 23A1 1 0 1 0 15 25 1 1 0 1 0 15 23z" />
  <g>
    <path fill="#c5d4de" d="M24 14A1 1 0 1 0 24 16A1 1 0 1 0 24 14Z" />
  </g>
  <g>
    <path fill="#c5d4de" d="M6 14A1 1 0 1 0 6 16A1 1 0 1 0 6 14Z" />
  </g>
</svg>